<?xml version="1.0" standalone="no"?>
<!DOCTYPE svg PUBLIC "-//W3C//DTD SVG 20010904//EN"
 "http://www.w3.org/TR/2001/REC-SVG-20010904/DTD/svg10.dtd">
<svg version="1.0" xmlns="http://www.w3.org/2000/svg"
 width="500.000000pt" height="500.000000pt" viewBox="0 0 500.000000 500.000000"
 preserveAspectRatio="xMidYMid meet">

<g transform="translate(0.000000,500.000000) scale(0.100000,-0.100000)"
fill="#fff" stroke="none">
<path d="M2010 4610 l0 -390 -385 0 -385 0 0 -490 0 -490 385 0 385 0 0 -385
0 -385 488 2 487 3 3 383 2 382 385 0 385 0 0 490 0 490 -385 0 -385 0 0 390
0 390 -490 0 -490 0 0 -390z"/>
<path d="M530 2939 c-46 -18 -92 -61 -111 -103 -18 -39 -19 -78 -19 -700 0
-745 -2 -726 77 -876 46 -89 55 -100 286 -344 224 -237 458 -486 518 -549 80
-86 88 -110 89 -249 l0 -118 395 0 395 0 0 238 c0 275 -10 339 -67 443 -32 57
-112 144 -508 545 -259 262 -487 490 -509 507 -75 60 -184 46 -242 -30 -32
-43 -43 -117 -23 -164 7 -18 120 -147 251 -288 132 -141 252 -276 268 -300 39
-59 67 -135 71 -196 l4 -50 -75 0 -75 0 -7 48 c-3 26 -17 66 -30 90 -13 23
-134 163 -269 310 -153 168 -255 288 -273 323 -72 135 -28 301 104 386 l50 33
-2 450 c-3 439 -4 451 -25 490 -27 50 -58 80 -105 100 -42 17 -130 19 -168 4z"/>
<path d="M4292 2929 c-24 -12 -54 -37 -69 -55 -51 -68 -52 -77 -52 -544 l-1
-435 50 -33 c132 -86 179 -261 104 -391 -16 -27 -141 -172 -277 -322 -136
-149 -257 -290 -268 -312 -12 -22 -24 -61 -28 -86 l-6 -46 -69 -3 c-38 -2 -73
1 -77 5 -14 14 9 122 39 187 32 69 53 94 319 378 105 113 203 222 217 243 96
142 -79 319 -228 231 -50 -29 -978 -969 -1023 -1035 -17 -25 -42 -76 -54 -111
-22 -60 -23 -84 -27 -333 l-4 -267 396 0 396 0 0 118 c0 93 4 125 19 157 11
24 154 182 356 395 515 543 522 551 571 719 l24 83 0 663 0 662 -23 44 c-36
68 -93 103 -175 107 -54 2 -76 -1 -110 -19z"/>
</g>
</svg>
