<?xml version="1.0" standalone="no"?>
<!DOCTYPE svg PUBLIC "-//W3C//DTD SVG 20010904//EN"
 "http://www.w3.org/TR/2001/REC-SVG-20010904/DTD/svg10.dtd">
<svg version="1.0" xmlns="http://www.w3.org/2000/svg"
 width="360.000000pt" height="196.000000pt" viewBox="0 0 360.000000 196.000000"
 preserveAspectRatio="xMidYMid meet">

<g transform="translate(0.000000,196.000000) scale(0.100000,-0.100000)"
fill="#fff" stroke="none">
<path d="M1799 1867 c-18 -12 -44 -38 -57 -57 -22 -32 -24 -42 -19 -125 4 -70
11 -102 31 -142 14 -29 26 -59 26 -66 0 -22 -59 -75 -98 -88 -200 -68 -186
-61 -200 -104 -11 -32 -11 -54 -2 -109 6 -38 8 -71 5 -74 -3 -3 -20 0 -38 6
-19 7 -41 12 -50 12 -20 0 -33 23 -42 76 -6 37 -3 46 23 75 34 39 52 94 52
162 0 62 -19 106 -61 141 -29 25 -39 28 -88 24 -45 -4 -59 -10 -82 -36 -36
-40 -52 -121 -44 -215 8 -94 1 -104 -59 -87 -49 13 -82 45 -93 88 -4 18 4 42
27 85 60 108 51 263 -17 317 -31 24 -81 34 -122 25 -44 -9 -97 -63 -110 -111
-12 -44 2 -135 34 -219 34 -87 -15 -139 -164 -179 -51 -14 -99 -30 -107 -37
-29 -24 -74 -232 -74 -342 0 -37 -7 -103 -16 -145 -17 -80 -15 -146 7 -265 19
-105 38 -148 70 -161 25 -9 29 -15 29 -51 0 -22 -7 -85 -15 -139 -8 -55 -12
-103 -9 -108 3 -4 601 -8 1328 -8 1139 0 1325 2 1335 14 8 10 10 30 6 60 -7
43 -6 46 15 46 19 0 21 4 15 23 -4 12 -9 45 -12 73 -4 41 0 60 21 103 35 68
71 262 55 293 -14 25 -4 123 16 173 10 23 15 70 14 147 -1 210 -14 239 -127
277 -138 48 -182 88 -182 164 0 33 6 49 25 67 22 21 25 32 25 89 -1 111 -31
168 -105 202 -59 27 -98 24 -138 -11 -42 -37 -56 -86 -56 -197 0 -68 5 -90 25
-128 13 -25 24 -56 24 -68 0 -12 7 -35 15 -51 8 -15 12 -32 9 -37 -10 -17 -58
-9 -81 13 -13 12 -42 24 -65 27 -40 6 -43 8 -51 46 -5 22 -6 65 -2 95 3 30 9
76 12 102 7 65 -11 111 -60 153 -33 29 -49 35 -86 35 -40 0 -49 -5 -88 -45
-43 -45 -43 -46 -43 -118 0 -84 26 -166 65 -207 24 -25 25 -32 19 -79 -6 -44
-11 -54 -33 -63 -14 -6 -40 -17 -56 -25 -48 -24 -68 -14 -81 37 -9 39 -16 48
-59 72 -27 15 -81 39 -120 54 -71 28 -135 82 -135 115 0 10 14 43 30 74 17 31
30 66 30 78 0 11 5 46 12 77 10 52 9 61 -11 104 -44 89 -164 126 -242 73z
m431 -1145 c0 -11 9 -27 20 -37 11 -10 20 -28 20 -39 -1 -19 -41 -76 -55 -76
-3 0 -5 38 -5 85 0 50 4 85 10 85 6 0 10 -8 10 -18z m-664 -162 c-3 -16 -9
-43 -12 -60 -8 -42 -20 -37 -40 16 -17 45 -17 47 1 60 10 8 27 14 38 14 15 0
18 -5 13 -30z"/>
</g>
</svg>
