<?xml version="1.0" standalone="no"?>
<!DOCTYPE svg PUBLIC "-//W3C//DTD SVG 20010904//EN"
 "http://www.w3.org/TR/2001/REC-SVG-20010904/DTD/svg10.dtd">
<svg version="1.0" xmlns="http://www.w3.org/2000/svg"
 width="559.000000pt" height="447.000000pt" viewBox="0 0 559.000000 447.000000"
 preserveAspectRatio="xMidYMid meet">

<g transform="translate(0.000000,447.000000) scale(0.100000,-0.100000)"
fill="#fff" stroke="none">
<path d="M1955 4011 c-58 -15 -106 -44 -145 -89 -96 -108 -90 -255 14 -358 79
-80 189 -101 291 -55 103 46 155 128 155 244 0 75 -18 121 -70 180 -51 58
-172 97 -245 78z"/>
<path d="M3364 3861 c-41 -19 -75 -57 -88 -99 -4 -12 -25 -43 -47 -68 -149
-172 -29 -434 200 -434 150 0 264 110 265 255 0 78 -18 129 -64 179 -21 23
-41 52 -45 66 -19 64 -92 120 -155 120 -14 0 -43 -9 -66 -19z"/>
<path d="M1646 3534 c-87 -19 -211 -68 -254 -101 -19 -14 -42 -39 -53 -57 -18
-30 -19 -58 -19 -643 l0 -613 -58 0 c-36 0 -66 -6 -80 -16 l-22 -15 0 -828 c0
-789 1 -829 18 -844 25 -22 48 -21 72 3 20 20 20 33 20 800 l0 780 40 0 c22 0
54 -9 72 -20 42 -25 74 -25 116 0 62 38 62 37 62 589 l0 499 33 5 c17 2 35 3
40 0 4 -2 7 -572 7 -1266 0 -1209 1 -1264 19 -1303 51 -111 214 -114 272 -4
18 33 19 73 19 738 l0 703 58 -3 57 -3 5 -710 c5 -663 6 -713 23 -738 60 -92
205 -90 262 5 20 33 20 48 18 1306 l-3 1272 25 1 c14 1 33 2 43 3 16 1 17 -32
22 -516 5 -504 5 -517 26 -545 11 -15 39 -34 60 -42 36 -12 44 -12 78 4 42 20
75 77 76 127 0 15 60 166 133 335 74 170 143 331 154 358 l21 50 53 3 c28 2
56 -1 60 -5 5 -5 -43 -226 -107 -499 -64 -269 -127 -534 -139 -589 -13 -55
-44 -185 -69 -289 -25 -103 -46 -190 -46 -192 0 -2 75 -5 168 -6 l167 -3 5
-409 5 -408 40 -35 c37 -32 44 -35 93 -31 63 6 107 41 122 99 6 22 10 187 10
401 0 200 0 369 0 376 0 8 22 12 75 12 65 0 75 -2 75 -17 0 -10 0 -179 0 -376
0 -218 4 -373 10 -397 15 -56 69 -100 123 -100 47 0 99 27 119 62 10 17 14
119 18 423 l5 400 168 3 c154 2 168 4 163 20 -5 17 -134 559 -232 977 -30 127
-73 303 -95 393 -22 90 -38 170 -35 178 4 11 20 14 62 12 l57 -3 17 -60 c76
-270 215 -725 228 -747 37 -64 124 -72 183 -17 20 18 42 29 60 29 l29 0 0
-805 c0 -792 0 -805 20 -825 24 -24 53 -26 74 -4 14 14 16 106 16 864 l0 849
-22 15 c-15 11 -45 16 -88 16 l-66 0 -59 198 c-196 663 -235 788 -252 811 -48
65 -196 136 -309 148 -47 5 -54 3 -98 -31 -110 -84 -244 -86 -362 -6 -47 31
-50 32 -101 20 -75 -16 -159 -61 -224 -119 -54 -48 -60 -59 -134 -233 -76
-180 -95 -217 -95 -187 0 7 0 140 0 294 0 255 -1 283 -18 315 -35 64 -137 119
-301 161 -98 25 -143 25 -167 -2 -10 -12 -41 -33 -69 -47 -43 -23 -63 -27
-135 -27 -90 0 -139 17 -203 71 -33 28 -61 29 -161 8z"/>
</g>
</svg>
