
<svg xmlns="http://www.w3.org/2000/svg" xmlns:xlink="http://www.w3.org/1999/xlink" version="1.1" width="3187.5" height="1002.223178745494" viewBox="0 0 3187.5 1002.223178745494">
	<g transform="scale(9.375) translate(10, 10)">
		<defs id="SvgjsDefs1569"></defs><g id="SvgjsG1570" featureKey="PG4fjM-0" transform="matrix(1.3982598773599608,0,0,1.3982598773599608,-19.912900524080754,-26.461088334602632)" fill="#0d6efd"><g xmlns="http://www.w3.org/2000/svg"><path d="M85.464798,49.2919998L55.3232002,19.2162991c-0.0027008-0.0026989-0.0066986-0.0035992-0.0093994-0.0063   c-0.0027008-0.0025997-0.0035019-0.0063-0.0062027-0.0087986c-0.0414963-0.0398006-0.0936966-0.0573006-0.1397972-0.088501   c-0.0599022-0.040699-0.1149025-0.0884991-0.1818008-0.115099c-0.0732994-0.0292015-0.1506004-0.0342007-0.2276993-0.0453014   c-0.047802-0.007-0.0922012-0.0279999-0.1411018-0.0279999H44.3280754c-0.2705002,0-0.5293007,0.1099014-0.717701,0.3042011   l-29.086998,30.0098c-0.3768997,0.3881989-0.3759003,1.0057983,0.0010004,1.3935013L43.875,80.7733994   c0.0042763,0.0044022,0.0105743,0.0058975,0.0149994,0.0102005c0.0035744,0.0037003,0.0046768,0.0086975,0.0083771,0.0122986   c0.0527992,0.0511017,0.1176987,0.0776978,0.1777992,0.1147003c0.0466995,0.028801,0.0865974,0.0679016,0.1371994,0.0886002   c0.1212997,0.0495987,0.2494011,0.0764999,0.3783989,0.0764999h10.8164253c0.2695007,0,0.5273018-0.108902,0.7158012-0.301796   l29.3506012-30.0757027C85.857399,50.3061981,85.8525009,49.6791992,85.464798,49.2919998z M44.7519989,20.9242992h7.527401   L25.1757755,49.3096008c-0.0389996,0.0408974-0.0566998,0.0920982-0.0874996,0.1373978   c-0.0400009,0.058403-0.0862007,0.1114006-0.1132011,0.1779022c-0.039999,0.0988007-0.0548992,0.2028999-0.0620747,0.3076973   C24.911375,49.9561005,24.8993759,49.9761009,24.8993759,50c0,0.0012016,0.0007,0.0019989,0.0007,0.0032005   c0.0003986,0.1289978,0.0263996,0.2573013,0.0762997,0.3782997c0.0321999,0.0778999,0.0862999,0.1409988,0.1362,0.2075996   c0.0268993,0.0359993,0.040699,0.0780983,0.0728989,0.1110992l0.0063,0.0063019   c0.0003014,0.0002975,0.0005016,0.0006981,0.0008011,0.0009995l18.4871006,18.855999   c0.1865005,0.1903992,0.4423981,0.2983017,0.7089996,0.2997971c0.0018997,0,0.0028992,0,0.0048981,0   c0.2656021,0,0.5195007-0.1054993,0.7070274-0.2929993l5.6049995-5.6049957   c0.0004005-0.0004005,0.0009995-0.0004997,0.0014-0.0009003c0.0004997-0.0004997,0.0005989-0.0011024,0.0009995-0.001503   L63.6708984,51h7.5239029L44.587574,78.6380997L16.6356754,49.9325981L44.7519989,20.9242992z M36.3290749,51l12.256424,12.2569008   l-4.1851234,4.1850014L28.2804756,51H36.3290749z M63.6708984,49L51.414299,36.7429008l3.9519005-3.9519005L71.1737976,49   H63.6708984z M50.0001984,38.1570015L61.8428001,50L49.9995995,61.8428001L38.1571732,50L50.0001984,38.1570015z    M54.9873009,79.0756989h-8.0446014l27.3239021-28.3822975c0.0375977-0.0391006,0.0543976-0.0883026,0.0844955-0.1314011   c0.0422058-0.0605011,0.0906067-0.1160011,0.1189041-0.1851997c0.0427017-0.1049995,0.0604019-0.2159004,0.0658951-0.3274994   C74.5369034,50.0320015,74.5458984,50.0175018,74.5458984,50c0-0.0007019-0.0003967-0.0012016-0.0003967-0.0018005   c-0.0001984-0.1287994-0.0265045-0.2569008-0.0761032-0.3778c-0.031395-0.0760994-0.0840988-0.1375999-0.1322021-0.2028008   c-0.0275955-0.0376968-0.0419998-0.0814972-0.0754929-0.115799l-0.0083008-0.0085983   c-0.000206-0.000103-0.0003052-0.0004005-0.0005035-0.0004997L56.0908012,30.6693993   c-0.1865005-0.1913986-0.4424019-0.3002987-0.7098999-0.3016987c-0.2315025-0.0137005-0.5235023,0.1035004-0.7129021,0.2929001   l-5.3745995,5.3747005c-0.0000992,0.0001984-0.0003014,0.0001984-0.0004005,0.0002975   c-0.0001984,0.0002022-0.0001984,0.0003014-0.0002975,0.0004997L36.3290749,49h-8.0920753l26.3973007-27.6453991   l28.7182007,28.6546993L54.9873009,79.0756989z"></path></g></g><g id="SvgjsG1571" featureKey="jxYttZ-0" transform="matrix(1.9833398664371795,0,0,1.9833398664371795,116.8266554571164,19.083302559274394)" fill="#0d6efd"><path d="M14.64 12.5 c0 4.14 -3.22 7.48 -7.2 7.5 l-5.84 0 l0 -15 l5.84 0 c3.98 0.02 7.2 3.38 7.2 7.5 z M7.4 18.16 c1.32 0 2.58 -0.56 3.52 -1.62 c0.96 -1.08 1.5 -2.5 1.5 -4.04 c0 -1.52 -0.54 -2.96 -1.5 -4.02 c-0.94 -1.06 -2.2 -1.64 -3.52 -1.64 l-3.58 0 l0 11.32 l3.58 0 z M23.36 5 l6.16 15 l-2.4 0 l-1.5 -3.92 l-5.9 0 l-1.48 3.92 l-2.4 0 l6.16 -15 l1.36 0 z M20.42 14.24 l4.5 0 l-2.24 -5.92 z M42.44 10.32 c0 2.28 -1.32 4.12 -3.22 4.92 l3.22 4.76 l-2.46 0 l-2.94 -4.36 l-3.5 0 l0 4.36 l-2.22 0 l0 -4.36 l0 -1.84 l0 -6.96 l0 -1.84 l2.22 0 l3.6 0 c2.94 0.02 5.3 2.3 5.3 5.32 z M33.54 6.84 l0 6.96 l3.58 0 c1.7 0 3.1 -1.44 3.1 -3.48 c0 -2.02 -1.4 -3.48 -3.1 -3.48 l-3.58 0 z M54.08 11.58 c1.18 0.82 1.96 2.22 1.96 3.82 c0 2.54 -2 4.6 -4.46 4.6 l-5.94 0 l0 -15 l5.94 0 c2.02 0 3.64 1.72 3.64 3.8 c0 1.08 -0.44 2.08 -1.14 2.78 z M47.86 6.84 l0 3.96 l3.72 0 l0.06 0 c0.76 -0.06 1.36 -0.96 1.36 -2 c0 -1.06 -0.64 -1.96 -1.42 -1.96 l-3.72 0 z M51.58 18.16 c1.24 0 2.24 -1.24 2.24 -2.76 c0 -1.48 -0.96 -2.7 -2.14 -2.76 l-0.1 0 l-3.72 0 l0 5.52 l3.72 0 z M68.86 5 l2.22 0 l0 9.12 c0 2.42 -0.96 6.08 -6 6.08 s-6.04 -3.66 -6.04 -6.08 l0 -9.12 l2.22 0 l0 9.12 c0 0.9 0.2 4.24 3.82 4.24 s3.78 -3.34 3.78 -4.24 l0 -9.12 z M87.76 5 l-7.38 6.2 l7.38 8.8 l-3.1 0 l-5.98 -7.38 l-2.18 1.82 l0 5.56 l-2.22 0 l0 -15 l2.22 0 l0 6.84 l8 -6.84 l3.26 0 z M96.28 5 l6.16 15 l-2.4 0 l-1.5 -3.92 l-5.9 0 l-1.48 3.92 l-2.4 0 l6.16 -15 l1.36 0 z M93.34 14.24 l4.5 0 l-2.24 -5.92 z"></path></g>
	</g>
</svg>
	